<svg version="1.1" id="Layer_1" xmlns="http://www.w3.org/2000/svg" xmlns:xlink="http://www.w3.org/1999/xlink" x="0px" y="0px"
	 width="100%" viewBox="0 0 1447 1447" enable-background="new 0 0 1447 1447" xml:space="preserve">
<path fill="#F3C677" opacity="1.000000" stroke="none" 
	d="
M820.994202,1113.834229 
	C819.261658,1114.222778 817.534790,1114.920654 815.795654,1114.952759 
	C793.880676,1115.357544 771.963074,1115.613892 750.048035,1116.013550 
	C724.014587,1116.488403 698.757202,1111.546509 673.822876,1104.806396 
	C665.646240,1102.596191 657.785889,1099.126343 649.913452,1095.908203 
	C643.388550,1093.240845 641.530396,1085.237427 644.206787,1076.264526 
	C645.721375,1071.186890 646.827576,1065.779175 646.878784,1060.508179 
	C647.140869,1033.523071 647.584167,1006.517090 646.798157,979.552307 
	C646.258789,961.048706 643.979187,942.642334 637.185791,925.019226 
	C633.663208,915.880920 632.594360,905.755127 628.744934,896.793640 
	C622.185242,881.522583 613.696960,867.079956 607.134216,851.809998 
	C598.531189,831.792786 586.878052,813.547302 575.855286,794.932251 
	C572.395386,789.089294 566.637512,784.567749 563.403320,778.638489 
	C556.314514,765.642212 543.801575,758.453918 533.484375,748.936401 
	C526.862732,742.828003 519.618591,737.397766 512.936401,731.350830 
	C505.445496,724.571899 498.042206,717.664917 491.010620,710.416016 
	C475.716858,694.649597 461.315277,678.026550 449.403778,659.570984 
	C438.799225,643.140320 428.583008,626.343750 419.714355,608.934875 
	C406.338806,582.679321 396.797913,554.805542 390.220428,526.090027 
	C386.889496,511.548096 385.092987,496.630951 383.089355,481.817657 
	C381.902527,473.042908 381.538177,464.146973 381.035370,455.292419 
	C380.538696,446.546112 379.723419,437.755280 380.124207,429.033417 
	C381.018250,409.578369 382.355164,390.183899 385.769135,370.897614 
	C389.615906,349.166443 394.644989,327.837769 401.967896,307.038818 
	C402.927979,304.311951 403.974670,301.615601 405.394409,298.466003 
	C418.866394,295.188049 432.038086,292.783173 444.960480,289.420166 
	C472.111603,282.354187 498.845917,273.433441 526.990295,270.901886 
	C547.903809,269.020721 568.836426,266.937500 589.804626,266.204254 
	C608.223022,265.560211 626.709961,266.456635 645.151733,267.099976 
	C652.882324,267.369629 660.619263,268.458160 668.275330,269.667999 
	C687.016541,272.629639 705.712219,275.879883 724.426575,279.011414 
	C733.212830,280.481659 742.276855,281.046387 750.715454,283.644287 
	C760.891663,286.777161 770.687744,291.310333 780.375854,295.822571 
	C793.451355,301.912506 805.788452,309.190552 816.775391,318.794220 
	C828.714905,329.230591 842.025146,338.195923 853.299011,349.267700 
	C863.374634,359.162720 872.178772,370.570221 880.318848,382.170013 
	C894.398743,402.234222 904.021118,424.523560 910.635071,448.170776 
	C919.190491,478.759033 924.948730,509.673218 924.062317,541.620544 
	C923.688110,555.108459 923.815918,568.620422 924.181335,582.108826 
	C924.243164,584.389038 926.293640,587.956787 928.117126,588.469482 
	C929.931580,588.979675 932.888855,586.708130 934.822876,585.048096 
	C936.061462,583.985046 936.432190,581.848206 937.057739,580.143494 
	C940.817566,569.896240 944.927307,559.756531 948.185852,549.350891 
	C953.758728,531.555176 959.309814,513.720886 963.869019,495.650208 
	C966.987976,483.288086 968.407837,470.497284 970.591980,457.871094 
	C970.927368,458.018524 971.406494,458.076996 971.483704,458.284790 
	C977.521423,474.543274 984.316650,490.573547 989.354553,507.138092 
	C997.270020,533.164368 1001.903931,559.687744 998.137146,587.201965 
	C995.788025,604.361084 995.179810,621.757507 992.865662,638.922729 
	C991.396606,649.819580 989.312195,660.877075 985.604126,671.178772 
	C977.323181,694.184631 964.342529,714.503052 946.781372,731.708557 
	C925.658813,752.403381 905.008423,773.551575 886.730225,796.842957 
	C872.860718,814.516541 859.021912,832.242371 845.929138,850.490112 
	C829.975708,872.724731 816.544617,896.534485 805.308838,921.502991 
	C800.834351,931.446289 796.391602,941.524048 793.300232,951.945801 
	C785.543884,978.093933 781.183899,1004.717041 783.886108,1032.219604 
	C785.297363,1046.583496 787.012512,1060.817505 792.047119,1074.402832 
	C794.796509,1081.821777 796.638184,1089.688965 802.874207,1095.489868 
	C809.161743,1101.338501 814.973816,1107.698364 820.994202,1113.834229 
z"/>
<path fill="#F64071" opacity="1.000000" stroke="none" 
	d="
M821.303101,1113.978638 
	C814.973816,1107.698364 809.161743,1101.338501 802.874207,1095.489868 
	C796.638184,1089.688965 794.796509,1081.821777 792.047119,1074.402832 
	C787.012512,1060.817505 785.297363,1046.583496 783.886108,1032.219604 
	C781.183899,1004.717041 785.543884,978.093933 793.300232,951.945801 
	C796.391602,941.524048 800.834351,931.446289 805.308838,921.502991 
	C816.544617,896.534485 829.975708,872.724731 845.929138,850.490112 
	C859.021912,832.242371 872.860718,814.516541 886.730225,796.842957 
	C905.008423,773.551575 925.658813,752.403381 946.781372,731.708557 
	C964.342529,714.503052 977.323181,694.184631 985.604126,671.178772 
	C989.312195,660.877075 991.396606,649.819580 992.865662,638.922729 
	C995.179810,621.757507 995.788025,604.361084 998.137146,587.201965 
	C1001.903931,559.687744 997.270020,533.164368 989.354553,507.138092 
	C984.316650,490.573547 977.521423,474.543274 971.483704,458.284790 
	C971.406494,458.076996 970.927368,458.018524 970.591980,457.871094 
	C968.407837,470.497284 966.987976,483.288086 963.869019,495.650208 
	C959.309814,513.720886 953.758728,531.555176 948.185852,549.350891 
	C944.927307,559.756531 940.817566,569.896240 937.057739,580.143494 
	C936.432190,581.848206 936.061462,583.985046 934.822876,585.048096 
	C932.888855,586.708130 929.931580,588.979675 928.117126,588.469482 
	C926.293640,587.956787 924.243164,584.389038 924.181335,582.108826 
	C923.815918,568.620422 923.688110,555.108459 924.062317,541.620544 
	C924.948730,509.673218 919.190491,478.759033 910.635071,448.170776 
	C904.021118,424.523560 894.398743,402.234222 880.318848,382.170013 
	C872.178772,370.570221 863.374634,359.162720 853.299011,349.267700 
	C842.025146,338.195923 828.714905,329.230591 816.775391,318.794220 
	C805.788452,309.190552 793.451355,301.912506 780.375854,295.822571 
	C770.687744,291.310333 760.891663,286.777161 750.715454,283.644287 
	C742.276855,281.046387 733.212830,280.481659 724.426575,279.011414 
	C705.712219,275.879883 687.016541,272.629639 668.275330,269.667999 
	C660.619263,268.458160 652.882324,267.369629 645.151733,267.099976 
	C626.709961,266.456635 608.223022,265.560211 589.804626,266.204254 
	C568.836426,266.937500 547.903809,269.020721 526.990295,270.901886 
	C498.845917,273.433441 472.111603,282.354187 444.960480,289.420166 
	C432.038086,292.783173 418.866394,295.188049 405.400238,298.088989 
	C392.398590,300.563843 379.843353,303.214355 367.194092,305.292236 
	C360.571350,306.380127 353.791382,306.696869 347.067657,306.923126 
	C341.969971,307.094696 339.530334,303.083527 342.171021,298.678314 
	C350.701080,284.448242 359.384338,270.305481 368.260437,256.288574 
	C378.648254,239.884323 391.604218,225.483215 406.062012,212.747711 
	C422.378204,198.375168 439.796936,185.250671 456.795074,171.656998 
	C471.357269,160.011353 485.926788,148.372406 500.631958,136.908646 
	C515.924438,124.987061 531.925171,114.248856 549.415405,105.596169 
	C560.598450,100.063751 570.585938,92.158035 581.610535,86.251663 
	C597.950928,77.497444 615.268982,70.941017 633.845581,66.195267 
	C636.286743,66.325638 638.155273,66.627541 639.795959,66.148643 
	C646.665222,64.143547 653.467834,61.909481 660.291931,59.750031 
	C694.288818,48.991867 729.284363,43.944439 764.775818,43.240459 
	C783.644043,42.866203 802.591309,44.578476 821.449036,46.042984 
	C846.590881,47.995518 870.988953,53.945400 894.979065,61.522495 
	C925.425842,71.138817 954.233643,84.327293 981.392761,101.190987 
	C1003.082947,114.658875 1023.335632,130.020630 1041.806763,147.550674 
	C1053.969116,159.093399 1065.304932,171.555634 1076.477051,184.082306 
	C1095.615479,205.540955 1111.022583,229.636307 1124.429443,254.988098 
	C1136.133057,277.119293 1145.292480,300.335419 1152.249146,324.386047 
	C1159.049927,347.897522 1164.216431,371.737579 1166.059570,396.217682 
	C1166.531860,402.491577 1167.343994,408.739929 1168.000000,415.468658 
	C1167.340210,436.349640 1167.250122,456.801910 1165.821533,477.160248 
	C1164.861572,490.842285 1162.006836,504.391388 1160.000000,518.333374 
	C1160.000000,519.111145 1160.000000,519.555542 1159.774170,520.282349 
	C1159.032227,522.709778 1158.516113,524.854919 1158.000000,527.333374 
	C1158.000000,528.111145 1158.000000,528.555542 1157.793823,529.200806 
	C1157.391724,529.934448 1157.195801,530.467224 1157.000000,531.333374 
	C1157.000000,532.111145 1157.000000,532.555542 1156.793945,533.200806 
	C1156.391846,533.934448 1156.195923,534.467224 1156.000000,535.333374 
	C1156.000000,536.111145 1156.000000,536.555542 1155.793945,537.200806 
	C1155.391846,537.934448 1155.195923,538.467224 1155.000000,539.333374 
	C1155.000000,540.111145 1155.000000,540.555542 1154.793945,541.200806 
	C1154.391846,541.934448 1154.195923,542.467224 1153.932495,543.378174 
	C1148.443604,559.130371 1143.596069,574.736572 1137.490356,589.833862 
	C1120.850952,630.977051 1096.906372,667.661377 1067.005981,700.317749 
	C1042.545776,727.032349 1015.375610,750.824829 984.761963,770.333252 
	C974.455444,776.901062 966.635071,785.686035 960.305298,795.507141 
	C950.679016,810.443176 942.332703,826.215027 933.694214,841.771484 
	C930.387634,847.725952 928.043396,854.211548 924.789307,860.199036 
	C916.669861,875.138916 908.855530,890.172852 904.222656,906.661560 
	C901.707214,915.614014 898.727234,924.435974 896.212097,933.388611 
	C895.624817,935.479065 896.074341,937.860901 896.046875,940.108643 
	C896.031311,949.769958 895.460632,959.471130 896.149231,969.081970 
	C896.905090,979.631104 901.270020,989.071289 907.257446,997.847778 
	C914.399780,1008.317383 925.665100,1011.791382 936.728821,1014.572815 
	C947.266235,1017.221802 958.342834,1018.427185 969.232788,1018.801086 
	C983.931091,1019.305603 997.031982,1014.523987 1007.811462,1003.851624 
	C1012.793030,998.919556 1018.558655,994.753174 1024.168701,990.503296 
	C1025.353149,989.606140 1028.002563,989.070251 1028.929443,989.765198 
	C1030.412964,990.877380 1031.976318,993.255615 1031.805542,994.924744 
	C1031.414917,998.744385 1030.031006,1002.468628 1028.987793,1006.214172 
	C1026.253174,1016.032532 1024.431763,1026.244507 1020.473633,1035.545044 
	C1016.203186,1045.579468 1008.087341,1053.057251 999.616150,1060.065430 
	C988.614563,1069.166992 977.192505,1077.501709 964.130188,1083.346802 
	C958.829163,1085.718750 953.279968,1087.536133 948.099915,1089.508301 
	C965.842651,1097.288086 983.983643,1096.630737 1002.073486,1089.424438 
	C1012.328003,1085.339355 1022.429321,1080.865234 1032.726685,1076.896240 
	C1034.472412,1076.223267 1037.484741,1076.509033 1038.783081,1077.643799 
	C1040.138062,1078.827881 1041.075317,1081.854736 1040.559448,1083.589722 
	C1037.549683,1093.713989 1032.439331,1102.669678 1025.122803,1110.467285 
	C1010.816833,1125.714233 994.805969,1138.520752 975.587646,1147.099121 
	C964.805664,1151.911987 953.711487,1155.613281 941.840454,1155.930298 
	C929.826172,1156.251099 917.710388,1156.912109 905.793823,1155.786011 
	C887.703369,1154.076538 870.635315,1148.606079 854.618652,1139.476685 
	C842.357483,1132.487671 831.251831,1124.350586 821.303101,1113.978638 
z"/>
<path fill="#F64071" opacity="1.000000" stroke="none" 
	d="
M686.690979,1149.692139 
	C706.345520,1142.534668 726.495911,1141.537720 746.509888,1143.247192 
	C773.139343,1145.521851 797.175171,1155.327271 818.526611,1171.854614 
	C836.518494,1185.781494 850.573059,1202.835083 860.823669,1222.905762 
	C866.875732,1234.755737 871.494263,1247.397827 872.905090,1260.779907 
	C874.061462,1271.747925 874.955078,1282.814575 874.856812,1293.827759 
	C874.703979,1310.963257 870.187805,1327.293335 863.493225,1343.016846 
	C854.676636,1363.724487 840.750244,1380.726074 824.004333,1395.314697 
	C806.034851,1410.968750 785.171204,1421.104370 761.689392,1426.163696 
	C747.935913,1429.126953 734.137817,1429.570557 720.336853,1428.831543 
	C704.829224,1428.000977 689.865723,1424.013428 675.526611,1417.861206 
	C656.877380,1409.859619 640.730530,1398.235718 627.042297,1383.412231 
	C608.187683,1362.993896 594.838196,1339.472534 591.169128,1311.565430 
	C589.432434,1298.355469 588.411011,1284.804077 589.286377,1271.554077 
	C590.732300,1249.669434 598.026794,1229.282593 609.846313,1210.670410 
	C625.828003,1185.503906 647.443359,1166.744263 674.475342,1154.252197 
	C678.287415,1152.490479 682.384827,1151.346191 686.690979,1149.692139 
z"/>
<path fill="#F64071" opacity="1.000000" stroke="none" 
	d="
M1168.000000,415.000000 
	C1167.343994,408.739929 1166.531860,402.491577 1166.059570,396.217682 
	C1164.216431,371.737579 1159.049927,347.897522 1152.249146,324.386047 
	C1145.292480,300.335419 1136.133057,277.119293 1124.429443,254.988098 
	C1111.022583,229.636307 1095.615479,205.540955 1076.477051,184.082306 
	C1065.304932,171.555634 1053.969116,159.093399 1041.806763,147.550674 
	C1023.335632,130.020630 1003.082947,114.658875 981.392761,101.190987 
	C954.233643,84.327293 925.425842,71.138817 894.979065,61.522495 
	C870.988953,53.945400 846.590881,47.995518 821.449036,46.042984 
	C802.591309,44.578476 783.644043,42.866203 764.775818,43.240459 
	C729.284363,43.944439 694.288818,48.991867 660.291931,59.750031 
	C653.467834,61.909481 646.665222,64.143547 639.795959,66.148643 
	C638.155273,66.627541 636.286743,66.325638 634.237366,66.137512 
	C653.599915,57.647110 674.095215,52.256359 694.909912,48.023376 
	C714.532837,44.032738 734.306580,41.224430 754.392212,40.962955 
	C765.492737,40.818451 776.649292,39.446678 787.673218,40.199944 
	C805.800476,41.438576 823.872925,43.698929 841.908936,45.995983 
	C864.583435,48.883781 886.375366,55.404907 907.900208,62.922001 
	C934.743652,72.296509 960.189331,84.573120 984.189697,99.768402 
	C1004.125183,112.390083 1022.804504,126.646545 1040.277832,142.595444 
	C1058.255127,159.004303 1074.606567,176.743942 1089.600830,195.912720 
	C1107.385254,218.648178 1122.367676,243.048080 1134.470337,269.144287 
	C1147.417236,297.061157 1157.202759,326.087524 1163.108276,356.405182 
	C1166.622559,374.446686 1169.688965,392.482941 1170.042480,410.902069 
	C1170.063354,411.991943 1170.631104,413.071320 1170.534912,414.577759 
	C1169.416870,415.000000 1168.708374,415.000000 1168.000000,415.000000 
z"/>
<path fill="#F64071" opacity="1.000000" stroke="none" 
	d="
M896.387085,939.941101 
	C896.074341,937.860901 895.624817,935.479065 896.212097,933.388611 
	C898.727234,924.435974 901.707214,915.614014 904.222656,906.661560 
	C908.855530,890.172852 916.669861,875.138916 924.789307,860.199036 
	C928.043396,854.211548 930.387634,847.725952 933.694214,841.771484 
	C942.332703,826.215027 950.679016,810.443176 960.305298,795.507141 
	C966.635071,785.686035 974.455444,776.901062 984.761963,770.333252 
	C1015.375610,750.824829 1042.545776,727.032349 1067.005981,700.317749 
	C1096.906372,667.661377 1120.850952,630.977051 1137.490356,589.833862 
	C1143.596069,574.736572 1148.443604,559.130371 1154.286743,543.378174 
	C1155.416870,543.000122 1156.125244,543.000183 1156.833740,543.000244 
	C1150.868530,560.109070 1145.567505,577.486938 1138.771973,594.259277 
	C1130.078003,615.717102 1118.736450,635.947998 1105.832153,655.161072 
	C1097.927002,666.930969 1089.392212,678.386047 1080.127319,689.107117 
	C1068.769165,702.250488 1056.992676,715.175171 1044.221558,726.915771 
	C1030.382202,739.638428 1015.348816,751.092407 1000.520935,762.696899 
	C992.979797,768.598633 984.473389,773.267639 976.938721,779.176636 
	C973.043396,782.231689 970.008423,786.561462 967.117737,790.688538 
	C955.721252,806.959595 945.284485,823.820435 936.658691,841.757568 
	C928.198303,859.350647 918.884949,876.585938 911.427795,894.592041 
	C905.748474,908.305420 902.395325,922.981384 897.976135,937.219482 
	C897.698486,938.113892 897.149902,938.924133 896.387085,939.941101 
z"/>
<path fill="#F64071" opacity="1.000000" stroke="none" 
	d="
M1168.000000,415.468658 
	C1168.708374,415.000000 1169.416870,415.000000 1170.479492,414.999817 
	C1170.595215,424.256683 1170.301758,433.512756 1170.136230,442.771118 
	C1170.007935,449.949371 1170.600830,457.187012 1169.884766,464.298706 
	C1168.330444,479.732971 1166.158325,495.105408 1164.198486,510.497986 
	C1163.912598,512.743591 1163.405029,514.960876 1162.563232,517.595642 
	C1161.417603,518.000000 1160.708862,518.000000 1160.000000,518.000000 
	C1162.006836,504.391388 1164.861572,490.842285 1165.821533,477.160248 
	C1167.250122,456.801910 1167.340210,436.349640 1168.000000,415.468658 
z"/>
<path fill="#F64071" opacity="1.000000" stroke="none" 
	d="
M1158.000000,527.000000 
	C1158.516113,524.854919 1159.032227,522.709778 1160.127197,520.283691 
	C1161.177124,520.014648 1161.647949,520.026672 1162.118774,520.038696 
	C1161.744263,522.098022 1161.369751,524.157288 1160.560791,526.608276 
	C1159.417603,527.000000 1158.708862,527.000000 1158.000000,527.000000 
z"/>
<path fill="#F64071" opacity="1.000000" stroke="none" 
	d="
M1158.000000,527.333374 
	C1158.708862,527.000000 1159.417603,527.000000 1160.479980,526.999756 
	C1160.782471,527.595520 1160.731323,528.191589 1160.045166,528.905273 
	C1158.940063,529.015259 1158.470093,529.007629 1158.000000,529.000000 
	C1158.000000,528.555542 1158.000000,528.111145 1158.000000,527.333374 
z"/>
<path fill="#F64071" opacity="1.000000" stroke="none" 
	d="
M1157.793823,529.200806 
	C1158.470093,529.007629 1158.940063,529.015259 1159.762695,529.032471 
	C1160.069336,529.479614 1160.023438,529.917175 1159.552002,530.677368 
	C1158.417603,531.000000 1157.708862,531.000000 1157.000000,531.000000 
	C1157.195801,530.467224 1157.391724,529.934448 1157.793823,529.200806 
z"/>
<path fill="#F64071" opacity="1.000000" stroke="none" 
	d="
M1157.000000,531.333374 
	C1157.708862,531.000000 1158.417603,531.000000 1159.480103,530.999756 
	C1159.782593,531.595520 1159.731445,532.191589 1159.045166,532.905273 
	C1157.940063,533.015259 1157.470093,533.007629 1157.000000,533.000000 
	C1157.000000,532.555542 1157.000000,532.111145 1157.000000,531.333374 
z"/>
<path fill="#F64071" opacity="1.000000" stroke="none" 
	d="
M1156.793945,533.200806 
	C1157.470093,533.007629 1157.940063,533.015259 1158.762695,533.032471 
	C1159.069214,533.479614 1159.023315,533.917114 1158.552002,534.677368 
	C1157.417603,535.000000 1156.708862,535.000000 1156.000000,535.000000 
	C1156.195923,534.467224 1156.391846,533.934448 1156.793945,533.200806 
z"/>
<path fill="#F64071" opacity="1.000000" stroke="none" 
	d="
M1156.000000,535.333374 
	C1156.708862,535.000000 1157.417603,535.000000 1158.479980,534.999756 
	C1158.782471,535.595520 1158.731323,536.191589 1158.045166,536.905273 
	C1156.940063,537.015320 1156.470093,537.007690 1156.000000,537.000000 
	C1156.000000,536.555542 1156.000000,536.111145 1156.000000,535.333374 
z"/>
<path fill="#F64071" opacity="1.000000" stroke="none" 
	d="
M1155.793945,537.200867 
	C1156.470093,537.007690 1156.940063,537.015320 1157.762695,537.032471 
	C1158.069214,537.479614 1158.023315,537.917114 1157.552002,538.677368 
	C1156.417603,539.000000 1155.708862,539.000000 1155.000000,539.000000 
	C1155.195923,538.467224 1155.391846,537.934448 1155.793945,537.200867 
z"/>
<path fill="#F64071" opacity="1.000000" stroke="none" 
	d="
M1155.000000,539.333374 
	C1155.708862,539.000000 1156.417603,539.000000 1157.479980,538.999756 
	C1157.782471,539.595520 1157.731323,540.191589 1157.045166,540.905273 
	C1155.940063,541.015259 1155.470093,541.007629 1155.000000,541.000000 
	C1155.000000,540.555542 1155.000000,540.111145 1155.000000,539.333374 
z"/>
<path fill="#F64071" opacity="1.000000" stroke="none" 
	d="
M1154.793945,541.200806 
	C1155.470093,541.007629 1155.940063,541.015259 1156.762573,541.032471 
	C1157.069092,541.479736 1157.023193,541.917419 1156.905518,542.677734 
	C1156.125244,543.000183 1155.416870,543.000122 1154.354248,543.000000 
	C1154.195923,542.467224 1154.391846,541.934448 1154.793945,541.200806 
z"/>
<path fill="#F64071" opacity="1.000000" stroke="none" 
	d="
M1162.400635,519.911987 
	C1161.647949,520.026672 1161.177124,520.014648 1160.353149,520.001343 
	C1160.000000,519.555542 1160.000000,519.111145 1160.000000,518.333374 
	C1160.708862,518.000000 1161.417603,518.000000 1162.479980,517.999756 
	C1162.783203,518.594788 1162.732788,519.190063 1162.400635,519.911987 
z"/>
</svg>